<?xml version="1.0" encoding="utf-8"?>
<!-- Generator: Adobe Illustrator 25.3.0, SVG Export Plug-In . SVG Version: 6.00 Build 0)  -->
<svg version="1.1" id="Capa_1" xmlns="http://www.w3.org/2000/svg" xmlns:xlink="http://www.w3.org/1999/xlink" x="0px" y="0px"
	 viewBox="0 0 157.21 71.78" style="enable-background:new 0 0 157.21 71.78;" xml:space="preserve">
<style type="text/css">
	.st0{fill:#E8E8E8;}
	.st1{fill:#B6D275;}
</style>
<g>
	<path class="st0" d="M27.79,31.07v1.14c-1.97,2.19-3.78,4-5.42,5.42s-3.25,2.52-4.83,3.29s-3.09,1.15-4.55,1.15
		c-1.27,0-2.35-0.25-3.26-0.76s-1.59-1.24-2.06-2.21S6.98,37,6.98,35.68c0-1.04,0.17-2.15,0.5-3.31c0.33-1.17,0.82-2.34,1.45-3.53
		s1.41-2.42,2.33-3.68s2-2.6,3.24-3.99c1.29-1.44,2.56-2.69,3.81-3.74s2.39-1.87,3.41-2.47s1.97-1.04,2.84-1.34s1.6-0.44,2.17-0.44
		c0.59,0,1.08,0.14,1.49,0.42s0.73,0.69,0.95,1.23s0.33,1.16,0.33,1.86c0,1.32-0.45,2.8-1.35,4.42s-2.03,3.19-3.38,4.7
		s-2.63,2.75-3.86,3.7s-2.11,1.43-2.65,1.43c-0.36,0-0.7-0.14-1.01-0.43s-0.47-0.61-0.47-0.98c0-0.67,0.35-1.48,1.06-2.43
		s1.48-1.82,2.32-2.61s1.34-1.19,1.5-1.19c0.08,0,0.12,0.04,0.12,0.11c0,0.11-0.06,0.29-0.18,0.54s-0.18,0.42-0.18,0.47
		c0,0.09,0.04,0.14,0.11,0.14c0.2,0,0.77-0.53,1.72-1.6s1.82-2.24,2.61-3.52s1.19-2.33,1.19-3.16c0-0.34-0.07-0.6-0.22-0.78
		s-0.37-0.27-0.66-0.27c-0.82,0-2.07,0.67-3.74,2s-3.38,3.02-5.13,5.08s-3.21,4.18-4.39,6.37s-1.76,4.12-1.76,5.78
		c0,0.96,0.14,1.76,0.43,2.41s0.71,1.14,1.27,1.49s1.23,0.53,2.01,0.53c1.7,0,3.63-0.66,5.78-1.99S25.2,33.65,27.79,31.07z"/>
	<path class="st0" d="M38.93,31.11v1.18c-0.77,0.7-1.39,1.17-1.86,1.41s-1.14,0.33-2.02,0.28c-1.52,1.8-2.87,2.71-4.03,2.71
		c-0.66,0-1.25-0.22-1.79-0.65s-0.97-1.03-1.29-1.78s-0.48-1.59-0.48-2.51c0-0.75,0.25-1.58,0.75-2.5s1.14-1.77,1.93-2.56
		s1.64-1.43,2.54-1.92c0.9-0.49,1.74-0.73,2.51-0.73c0.55,0,0.98,0.08,1.3,0.25s0.47,0.41,0.47,0.71c0,0.23-0.13,0.5-0.4,0.81
		c0.45,0.09,0.75,0.25,0.91,0.47s0.25,0.61,0.25,1.19c0,0.56-0.13,1.27-0.4,2.13S36.7,31.25,36.24,32l0.32,0.32h0.26
		c0.2,0,0.4-0.05,0.59-0.15s0.37-0.21,0.52-0.32S38.42,31.49,38.93,31.11z M35.31,26.48c-0.97,0.59-1.8,1.12-2.5,1.59
		s-1.28,0.96-1.76,1.44s-0.8,0.98-0.97,1.47c-0.29,1.31-0.44,2.02-0.44,2.13c0,0.77,0.54,1.16,1.62,1.16c0.5,0,1.35-0.43,2.53-1.3
		c-0.2-0.55-0.3-1.08-0.3-1.58c0-0.74,0.15-1.49,0.46-2.26S34.71,27.48,35.31,26.48z"/>
	<path class="st0" d="M38.83,31.63v-0.42c3.02-3.19,5.1-5.42,6.24-6.7c0.26-1.44,0.88-2.16,1.86-2.16c0.25,0,0.51,0.07,0.79,0.21
		l0.11,0.33c-0.05,0.14-0.07,0.34-0.07,0.6c0,0.22,0.08,0.64,0.25,1.24s0.3,1.11,0.4,1.52s0.14,0.87,0.14,1.39
		c0,0.77-0.18,1.51-0.53,2.22s-0.86,1.39-1.53,2.04c-0.67,0.65-1.53,1.32-2.58,2c0.42,0.07,0.76,0.11,1,0.11
		c0.48,0,1-0.12,1.56-0.36s1.12-0.56,1.71-0.97s1.26-0.93,2.03-1.57v1.18c-1.5,1.46-2.84,2.58-4.03,3.33s-2.2,1.13-3.06,1.13
		c-1.1,0-2.12-0.47-3.06-1.41c-0.55-0.56-0.89-1.1-1.03-1.62S38.83,32.51,38.83,31.63z M45.38,28.94l-0.32-2.57
		c-0.73,0.82-2.28,2.4-4.66,4.73c0.7,0.15,1.18,0.36,1.44,0.62s0.62,0.76,1.09,1.49c0.8-0.33,1.41-0.78,1.84-1.34
		c0.43-0.57,0.64-1.34,0.64-2.33c0-0.12,0-0.22-0.01-0.32S45.4,29.04,45.38,28.94z"/>
	<path class="st0" d="M58.16,33.55c1.62-1.43,3.01-2.67,4.17-3.74s2.07-1.9,2.73-2.5s1.25-1.12,1.75-1.55s0.83-0.63,0.97-0.63
		c0.27-0.01,0.53,0.27,0.77,0.83s0.37,1.02,0.37,1.36c0,0.22-0.37,0.75-1.12,1.57s-1.3,1.49-1.67,1.98s-0.55,1.01-0.55,1.55
		c0,0.32,0.11,0.57,0.32,0.76s0.46,0.29,0.76,0.29c0.34,0,0.75-0.18,1.22-0.53s1.22-0.98,2.24-1.88v1.25
		c-1.02,0.96-1.95,1.79-2.78,2.49s-1.56,1.22-2.17,1.56s-1.13,0.52-1.54,0.52c-0.36,0-0.67-0.14-0.91-0.41s-0.37-0.62-0.37-1.03
		c0-0.4,0.07-0.8,0.21-1.21s0.36-0.9,0.65-1.46s0.68-1.24,1.16-2.03s0.92-1.51,1.32-2.17c-1.2,0.97-2.26,1.91-3.18,2.81
		c-0.93,0.9-1.68,1.69-2.27,2.36s-1.05,1.2-1.39,1.59c-0.66,0.73-1.27,1.09-1.83,1.09c-0.61,0-0.91-0.43-0.91-1.3
		c0-0.35,0.23-0.98,0.69-1.89s1.11-2.07,1.95-3.47c0.07-0.09,0.11-0.24,0.11-0.44c0-0.23-0.12-0.35-0.35-0.35
		c-0.26,0-0.63,0.24-1.12,0.73s-1.43,1.5-2.82,3.05c-0.39,0.43-0.82,1-1.31,1.7s-0.83,1.16-1.05,1.4s-0.42,0.35-0.63,0.35
		c-0.42,0-0.81-0.38-1.18-1.12s-0.54-1.62-0.54-2.62c0-0.73,0.12-1.35,0.36-1.88s0.61-1.18,1.12-1.97c0.79-1.14,1.43-1.95,1.92-2.43
		s1.02-0.73,1.57-0.73c0.34,0,0.63,0.07,0.86,0.2s0.35,0.32,0.35,0.55c0,0.25-0.21,0.65-0.64,1.21s-0.97,1.14-1.63,1.74
		c-0.35,0.34-0.69,0.76-1,1.26s-0.47,0.86-0.47,1.08c0,0.32,0.12,0.47,0.37,0.47c0.2,0,0.7-0.41,1.51-1.23s1.7-1.71,2.66-2.68
		s1.86-1.77,2.69-2.41s1.53-0.96,2.1-0.96c0.35,0,0.64,0.13,0.87,0.4s0.34,0.59,0.34,0.98c0,0.26-0.18,0.72-0.53,1.4
		s-0.86,1.51-1.54,2.5S59.23,32.14,58.16,33.55z"/>
	<path class="st0" d="M81.3,31.11v1.18c-0.77,0.7-1.39,1.17-1.86,1.41s-1.14,0.33-2.02,0.28c-1.52,1.8-2.87,2.71-4.03,2.71
		c-0.66,0-1.25-0.22-1.79-0.65S70.62,35,70.3,34.25s-0.48-1.59-0.48-2.51c0-0.75,0.25-1.58,0.75-2.5s1.14-1.77,1.93-2.56
		s1.64-1.43,2.54-1.92s1.74-0.73,2.51-0.73c0.55,0,0.98,0.08,1.3,0.25s0.47,0.41,0.47,0.71c0,0.23-0.13,0.5-0.4,0.81
		c0.45,0.09,0.75,0.25,0.91,0.47s0.25,0.61,0.25,1.19c0,0.56-0.13,1.27-0.4,2.13s-0.62,1.66-1.08,2.41l0.32,0.32h0.26
		c0.2,0,0.4-0.05,0.59-0.15s0.37-0.21,0.52-0.32S80.78,31.49,81.3,31.11z M77.68,26.48c-0.97,0.59-1.8,1.12-2.5,1.59
		s-1.28,0.96-1.76,1.44s-0.8,0.98-0.97,1.47c-0.29,1.31-0.44,2.02-0.44,2.13c0,0.77,0.54,1.16,1.62,1.16c0.5,0,1.35-0.43,2.53-1.3
		c-0.2-0.55-0.3-1.08-0.3-1.58c0-0.74,0.15-1.49,0.46-2.26S77.08,27.48,77.68,26.48z"/>
	<path class="st0" d="M83.56,31.18l-0.32,1.48c-0.05,0.19-0.07,0.4-0.07,0.63c0,0.63,0.26,0.95,0.79,0.95c0.5,0,1.73-0.98,3.67-2.95
		c0.01-0.76,0.3-1.64,0.85-2.64c0.56-1,1.17-1.87,1.85-2.62s1.17-1.12,1.5-1.12c0.52,0,0.77,0.34,0.77,1.02c0,0.41-0.1,0.91-0.3,1.5
		s-0.49,1.23-0.88,1.92s-0.86,1.39-1.42,2.12c0.29,0.53,0.59,0.79,0.9,0.79c0.26,0,0.54-0.09,0.85-0.27
		c0.31-0.18,0.7-0.46,1.17-0.83v1.18c-0.66,0.52-1.17,0.87-1.56,1.05s-0.87,0.28-1.47,0.28c-0.23,0-0.66-0.16-1.27-0.47
		c-1.2,1.27-2.17,2.21-2.92,2.84s-1.36,0.94-1.83,0.94c-0.81,0-1.5-0.48-2.07-1.45s-0.85-2.03-0.85-3.19c0-1.56,0.88-3.43,2.64-5.61
		c0.53-0.66,0.95-1.1,1.27-1.34s0.69-0.36,1.1-0.36c0.35,0,0.69,0.06,1,0.19s0.47,0.28,0.47,0.46c0,0.59-0.39,1.44-1.18,2.58
		S84.6,30.34,83.56,31.18z"/>
	<path class="st0" d="M101.3,31.14v1.28c-1.14,1.46-2.2,2.57-3.18,3.31s-1.82,1.12-2.51,1.12c-0.96,0-1.68-0.5-2.14-1.51
		s-0.7-2.11-0.7-3.3c0-0.46,0.05-0.89,0.14-1.31s0.21-0.76,0.33-1.03s0.37-0.69,0.72-1.27c1.66-2.59,3.19-3.88,4.57-3.88
		c0.71,0,1.07,0.28,1.07,0.83c0,0.38-0.23,0.96-0.69,1.76s-0.88,1.37-1.24,1.71c-1.02,0.98-1.68,1.67-2,2.06s-0.47,0.83-0.47,1.32
		c0,0.42,0.16,0.77,0.47,1.05s0.73,0.42,1.23,0.42c0.55,0,1.16-0.2,1.82-0.61S100.25,32.03,101.3,31.14z M100.1,23.28
		c-0.29,0-0.57-0.11-0.83-0.33s-0.4-0.5-0.4-0.84c0-0.52,0.25-1.09,0.74-1.72s1-0.95,1.53-0.95c0.35,0,0.64,0.11,0.88,0.33
		s0.35,0.53,0.35,0.94c0,0.5-0.24,1.06-0.72,1.67S100.66,23.28,100.1,23.28z"/>
	<path class="st0" d="M101.07,31.63v-0.42c3.02-3.19,5.1-5.42,6.24-6.7c0.26-1.44,0.88-2.16,1.86-2.16c0.25,0,0.51,0.07,0.79,0.21
		l0.11,0.33c-0.05,0.14-0.07,0.34-0.07,0.6c0,0.22,0.08,0.64,0.25,1.24s0.3,1.11,0.4,1.52s0.14,0.87,0.14,1.39
		c0,0.77-0.18,1.51-0.53,2.22s-0.86,1.39-1.53,2.04c-0.67,0.65-1.53,1.32-2.58,2c0.42,0.07,0.76,0.11,1,0.11
		c0.48,0,1-0.12,1.56-0.36s1.12-0.56,1.71-0.97s1.26-0.93,2.03-1.57v1.18c-1.5,1.46-2.84,2.58-4.03,3.33s-2.2,1.13-3.06,1.13
		c-1.1,0-2.12-0.47-3.06-1.41c-0.55-0.56-0.89-1.1-1.03-1.62S101.07,32.51,101.07,31.63z M107.63,28.94l-0.32-2.57
		c-0.73,0.82-2.28,2.4-4.66,4.73c0.7,0.15,1.18,0.36,1.44,0.62s0.62,0.76,1.09,1.49c0.8-0.33,1.41-0.78,1.84-1.34
		c0.43-0.57,0.64-1.34,0.64-2.33c0-0.12,0-0.22-0.01-0.32S107.64,29.04,107.63,28.94z"/>
	<path class="st0" d="M120.78,31.14v1.28c-1.14,1.46-2.2,2.57-3.18,3.31s-1.82,1.12-2.51,1.12c-0.96,0-1.68-0.5-2.14-1.51
		s-0.7-2.11-0.7-3.3c0-0.46,0.05-0.89,0.14-1.31s0.21-0.76,0.33-1.03s0.37-0.69,0.72-1.27c1.66-2.59,3.19-3.88,4.57-3.88
		c0.71,0,1.07,0.28,1.07,0.83c0,0.38-0.23,0.96-0.69,1.76s-0.88,1.37-1.24,1.71c-1.02,0.98-1.68,1.67-2,2.06s-0.47,0.83-0.47,1.32
		c0,0.42,0.16,0.77,0.47,1.05s0.73,0.42,1.23,0.42c0.55,0,1.16-0.2,1.82-0.61S119.72,32.03,120.78,31.14z M119.58,23.28
		c-0.29,0-0.57-0.11-0.83-0.33s-0.4-0.5-0.4-0.84c0-0.52,0.25-1.09,0.74-1.72s1-0.95,1.53-0.95c0.35,0,0.64,0.11,0.88,0.33
		s0.35,0.53,0.35,0.94c0,0.5-0.24,1.06-0.72,1.67S120.13,23.28,119.58,23.28z"/>
	<path class="st0" d="M131.92,31.11v1.18c-0.77,0.7-1.39,1.17-1.86,1.41s-1.14,0.33-2.02,0.28c-1.52,1.8-2.87,2.71-4.03,2.71
		c-0.66,0-1.25-0.22-1.79-0.65s-0.97-1.03-1.29-1.78s-0.48-1.59-0.48-2.51c0-0.75,0.25-1.58,0.75-2.5s1.14-1.77,1.93-2.56
		s1.64-1.43,2.54-1.92s1.74-0.73,2.51-0.73c0.55,0,0.98,0.08,1.3,0.25s0.47,0.41,0.47,0.71c0,0.23-0.13,0.5-0.4,0.81
		c0.45,0.09,0.75,0.25,0.91,0.47s0.25,0.61,0.25,1.19c0,0.56-0.13,1.27-0.4,2.13s-0.62,1.66-1.08,2.41l0.32,0.32h0.26
		c0.2,0,0.4-0.05,0.59-0.15s0.37-0.21,0.52-0.32S131.41,31.49,131.92,31.11z M128.3,26.48c-0.97,0.59-1.8,1.12-2.5,1.59
		s-1.28,0.96-1.76,1.44s-0.8,0.98-0.97,1.47c-0.29,1.31-0.44,2.02-0.44,2.13c0,0.77,0.54,1.16,1.62,1.16c0.5,0,1.35-0.43,2.53-1.3
		c-0.2-0.55-0.3-1.08-0.3-1.58c0-0.74,0.15-1.49,0.46-2.26S127.7,27.48,128.3,26.48z M128.51,20.7c-0.2,0-0.38-0.07-0.54-0.2
		s-0.25-0.28-0.25-0.45c0-0.43,0.61-1.54,1.83-3.32c0.53-0.74,0.97-1.23,1.33-1.47s0.86-0.36,1.52-0.36c0.87,0,1.3,0.3,1.3,0.9
		c0,0.34-0.38,0.9-1.13,1.69s-1.56,1.52-2.43,2.2S128.73,20.7,128.51,20.7z"/>
	<path class="st0" d="M143.73,27.96c-2.06,2.3-3.09,3.9-3.09,4.8c0,0.5,0.21,0.76,0.62,0.76c0.34,0,0.78-0.18,1.33-0.54
		s1.4-0.99,2.56-1.91v1.21c-1.66,1.64-2.94,2.82-3.83,3.55s-1.62,1.09-2.18,1.09c-0.96,0-1.44-0.63-1.44-1.9
		c0-0.38,0.06-0.74,0.18-1.11s0.28-0.74,0.48-1.13s0.52-0.96,0.94-1.69s0.91-1.56,1.46-2.49c-0.67,0.34-1.51,1.01-2.51,2.02
		c-0.66,0.63-1.21,1.23-1.67,1.8c-0.46,0.57-0.95,1.2-1.47,1.9s-0.9,1.17-1.14,1.41s-0.48,0.36-0.73,0.36
		c-0.38,0-0.72-0.39-1.04-1.18s-0.47-1.7-0.47-2.74c0-0.64,0.07-1.15,0.22-1.51s0.44-0.88,0.87-1.55c0.81-1.24,1.51-2.15,2.09-2.73
		s1.15-0.87,1.69-0.87c0.38,0,0.68,0.06,0.91,0.19s0.34,0.33,0.34,0.6c0,0.12-0.04,0.24-0.11,0.37s-0.15,0.25-0.24,0.35
		s-0.27,0.31-0.55,0.62c-1.85,2.05-2.78,3.38-2.78,3.99c0,0.34,0.11,0.51,0.33,0.51c0.14,0,0.41-0.23,0.82-0.68s0.93-1.04,1.56-1.78
		s1.39-1.5,2.27-2.29s1.87-1.56,2.98-2.3c0.62-0.43,1.14-0.65,1.55-0.65c0.19,0,0.37,0.26,0.55,0.77s0.27,1.04,0.27,1.56
		C144.49,27.04,144.24,27.43,143.73,27.96z"/>
</g>
<g>
	<path class="st1" d="M96.67,54.98c0-0.47,0-0.88-0.01-1.25l-0.03-1.26v-1.13c-0.01-0.34-0.01-0.71-0.01-1.13
		c0-1.25-0.02-2.41-0.07-3.47l-0.01-0.5c-0.03-0.55-0.04-1-0.04-1.34l0.04-0.06c0.01-0.02,0.03-0.04,0.06-0.07
		c0.01-0.03,0.03-0.05,0.07-0.06c0.02-0.01,0.05-0.01,0.1-0.01c0.33,0,0.62,0.08,0.89,0.22s0.48,0.35,0.65,0.62
		c0.33,0.51,0.49,1.1,0.49,1.75c0,0.42-0.07,0.85-0.2,1.29c-0.13,0.44-0.34,0.84-0.61,1.19c-0.28,0.38-0.59,0.61-0.94,0.67
		l0.03,1.55l0.03,0.76c0.04,0.9,0.06,1.66,0.06,2.3c0,0.15-0.02,0.26-0.06,0.33c-0.04,0.07-0.12,0.11-0.24,0.11
		C96.73,55.47,96.67,55.31,96.67,54.98z M97.29,49.8c0.02-0.01,0.05-0.05,0.1-0.11l0.1-0.1c0.61-0.61,0.91-1.37,0.91-2.28
		c0-0.52-0.1-1.01-0.31-1.46c-0.11-0.23-0.28-0.42-0.49-0.55c-0.21-0.14-0.47-0.2-0.76-0.2c0,0.53,0.03,1.33,0.08,2.39
		c0.06,1.06,0.08,1.86,0.08,2.39l0.03,0.03C97.12,49.9,97.21,49.87,97.29,49.8z"/>
	<path class="st1" d="M100.3,50.5v-0.49c0-2.6,0.34-3.91,1.01-3.91c0.05,0,0.11,0.01,0.2,0.04c0.3,0.1,0.59,0.17,0.88,0.2
		c0.18,0.04,0.35,0.22,0.53,0.55c0.2,0.34,0.34,0.78,0.44,1.33c0.1,0.55,0.15,1.12,0.15,1.69l-0.03,0.07c0,0.31,0,0.58,0.01,0.83
		l0.01,0.84c0,0.48-0.02,0.91-0.06,1.29c-0.06,0.58-0.15,1.08-0.28,1.5c-0.08,0.25-0.18,0.46-0.29,0.63s-0.24,0.31-0.4,0.42
		c-0.15,0.11-0.33,0.17-0.55,0.17C100.85,55.65,100.3,53.93,100.3,50.5z M102.69,54.48c0.18-0.52,0.29-1.05,0.32-1.6
		c0.04-0.56,0.06-1.01,0.06-1.34c0-0.37-0.03-0.92-0.08-1.65c-0.05-0.81-0.07-1.36-0.07-1.65l-0.06-0.11l0.03-0.07
		c0-0.41-0.11-0.77-0.34-1.06c-0.23-0.3-0.51-0.45-0.83-0.45c-0.43,0-0.69,0.21-0.77,0.62c-0.02,0.14-0.04,0.34-0.06,0.6
		c0,0.69-0.03,1.16-0.08,1.41c0,0.14-0.01,0.36-0.04,0.66l-0.03,0.66c0,0.21,0,0.39,0.01,0.55l0.01,0.56c0,0.44,0.04,0.94,0.11,1.51
		c0.06,0.42,0.12,0.78,0.2,1.06c0.08,0.29,0.18,0.54,0.32,0.74c0.14,0.22,0.3,0.34,0.49,0.34
		C102.25,55.25,102.52,54.99,102.69,54.48z"/>
	<path class="st1" d="M107.47,55.55c-0.11-0.12-0.23-0.44-0.36-0.97s-0.25-1.11-0.36-1.76c-0.07-0.53-0.18-1.06-0.32-1.58
		c-0.11-0.47-0.22-0.7-0.32-0.7h-0.04c-0.21,0-0.31,0.07-0.31,0.2c0,0.67,0.04,1.69,0.11,3.07c0.04,0.84,0.08,1.33,0.13,1.47
		l-0.11,0.24h-0.2l-0.11-0.11c-0.15-4.31-0.22-7.25-0.22-8.82c0-0.1,0.01-0.19,0.02-0.25s0.04-0.13,0.09-0.18
		c0.04-0.07,0.1-0.1,0.2-0.1c0.48,0,0.86,0.12,1.15,0.35c0.29,0.23,0.43,0.57,0.43,1.01v1.02c0,0.18-0.06,0.42-0.17,0.71
		c-0.12,0.3-0.25,0.57-0.39,0.83l-0.18,0.35c0.1,0.48,0.31,1.33,0.61,2.57c0.3,1.24,0.47,1.89,0.5,1.97
		c0.01,0.01,0.02,0.03,0.03,0.07c0.01,0.04,0.04,0.09,0.09,0.17c0.06,0.13,0.1,0.24,0.1,0.34c0,0.13-0.05,0.2-0.15,0.2L107.47,55.55
		z M106.29,49.93c0.14-0.18,0.25-0.41,0.34-0.69c0.15-0.57,0.22-1.02,0.22-1.36c0-0.21-0.01-0.39-0.04-0.53s-0.06-0.29-0.12-0.45
		c-0.11-0.33-0.38-0.49-0.8-0.49c-0.05,0-0.08,0.04-0.11,0.12c-0.03,0.08-0.04,0.16-0.04,0.25c0,0.63,0.01,1.19,0.03,1.69
		c0.01,0.5,0.01,1.07,0.01,1.69l0.03,0.03C105.99,50.19,106.15,50.1,106.29,49.93z"/>
	<path class="st1" d="M115.71,55.62c-0.04-0.06-0.06-0.16-0.06-0.3v-1.27c0-0.63-0.02-1.41-0.06-2.31
		c-0.01-0.17-0.01-0.41-0.01-0.73c-0.03-0.66-0.04-1.19-0.04-1.57l0.01-0.78c0.01-0.23,0.01-0.49,0.01-0.78c0-0.25,0-0.48-0.01-0.67
		c-0.01-0.14-0.02-0.26-0.02-0.35c0-0.09-0.01-0.17-0.02-0.22l-0.03,0.1c-0.1,0.68-0.26,1.58-0.46,2.69c-0.21,1.11-0.37,2-0.5,2.67
		c-0.13,0.6-0.21,1.02-0.25,1.27c-0.02,0.12-0.06,0.22-0.12,0.29c-0.06,0.08-0.13,0.11-0.2,0.11c-0.08,0-0.14-0.04-0.2-0.11
		c-0.06-0.07-0.09-0.18-0.1-0.32c-0.07-0.45-0.3-1.7-0.71-3.75c-0.41-2.05-0.64-3.12-0.69-3.19c-0.03,0.84-0.04,1.78-0.04,2.83
		c0,0.82,0,1.56,0.01,2.23c0.01,0.66,0.01,1.41,0.01,2.23c0,0.14,0.01,0.36,0.04,0.66l0.03,0.67c0,0.18-0.03,0.3-0.1,0.36
		c-0.27,0-0.41-0.24-0.41-0.73v-2.34l0.01-1.41c0.01-0.42,0.01-0.9,0.01-1.43c0-0.62,0-1.17,0.01-1.65l0.03-1.67V44.9
		c0-0.05,0.02-0.09,0.06-0.13c0.04-0.04,0.09-0.06,0.13-0.06c0.07,0,0.13,0.04,0.15,0.11c0.08,0.28,0.29,1.11,0.63,2.48
		s0.59,2.43,0.76,3.18c0.08,0.44,0.22,1.21,0.41,2.32l0.1-0.55c0.03-0.17,0.07-0.4,0.13-0.7c0.11-0.73,0.18-1.14,0.21-1.23
		l0.64-3.43l0.13-0.73l0.15-0.78l0.07-0.42c0.01-0.09,0.04-0.17,0.08-0.22c0.05-0.05,0.1-0.08,0.15-0.08c0.05,0,0.09,0.02,0.13,0.07
		c0.04,0.05,0.06,0.11,0.06,0.2v1.39c0,0.7,0.04,1.76,0.13,3.18c0.07,1.31,0.1,2.36,0.1,3.15c0,0.25,0.01,0.64,0.04,1.16
		c0.02,0.67,0.03,1.14,0.03,1.4c0,0.21-0.01,0.34-0.04,0.41c-0.04,0.06-0.09,0.08-0.15,0.08C115.83,55.71,115.75,55.68,115.71,55.62
		z"/>
	<path class="st1" d="M118.57,55.25c-0.05,0-0.08,0-0.11,0.01h-0.11c-0.21,0-0.34-0.05-0.39-0.14c0-0.07,0.04-0.12,0.11-0.17
		l0.07-0.07h0.41l0.06-0.06l0.03-0.13l0.01-0.17c0-0.57-0.01-1.08-0.04-1.53l-0.03-0.52l-0.03-1.02c0-0.36,0.01-0.91,0.04-1.64
		l0.03-1.62c0-0.71-0.02-1.25-0.07-1.62c-0.08-0.03-0.22-0.04-0.42-0.04l-0.15,0.01c-0.06,0.01-0.12,0.01-0.18,0.01
		c-0.18,0-0.27-0.08-0.27-0.24c0-0.04,0.04-0.08,0.13-0.11s0.15-0.06,0.21-0.06c0.35,0,0.71,0.02,1.06,0.06
		c0.21,0.01,0.43,0.05,0.64,0.13c0.17,0.06,0.25,0.14,0.25,0.24c0,0.02-0.01,0.06-0.04,0.11l-0.32,0.03
		c-0.07-0.06-0.2-0.08-0.41-0.08l-0.07,0.04c0.03,0.08,0.04,0.33,0.04,0.74c0,0.62,0,1.17-0.01,1.67l-0.03,1.67
		c0,0.42,0.02,0.93,0.06,1.53c0.03,0.68,0.04,1.2,0.04,1.54V54c-0.01,0.07-0.01,0.15-0.01,0.25c0,0.21,0.01,0.34,0.04,0.39
		l-0.01,0.03c0,0.09,0.1,0.14,0.31,0.14c0.08,0,0.15,0,0.21-0.01h0.21c0.27,0,0.41,0.07,0.41,0.2c0,0.08-0.03,0.15-0.08,0.2
		c-0.06,0.05-0.13,0.08-0.22,0.08c-0.08,0-0.16-0.01-0.22-0.03c-0.07-0.01-0.15-0.01-0.24-0.01c-0.06,0-0.14,0.02-0.25,0.07
		c-0.11,0.06-0.2,0.08-0.25,0.08C118.73,55.39,118.61,55.34,118.57,55.25z"/>
	<path class="st1" d="M122.55,55.48c-0.18-0.06-0.33-0.13-0.46-0.24s-0.25-0.26-0.36-0.46c-0.2-0.37-0.31-0.91-0.35-1.61
		c-0.02-0.32-0.03-0.6-0.03-0.84v-1.6c0-0.61,0.02-1.19,0.06-1.76c0.03-0.42,0.07-0.77,0.13-1.06c0.06-0.29,0.14-0.58,0.27-0.87
		c0.13-0.3,0.28-0.51,0.43-0.63c0.06-0.06,0.19-0.12,0.38-0.2c0.12-0.05,0.24-0.1,0.35-0.15h0.56h0.04
		c0.01,0.01,0.02,0.01,0.04,0.01l0.07,0.01l0.06,0.04c0.03,0.03,0.04,0.05,0.04,0.06c0.01,0.02,0.01,0.05,0.01,0.08l-0.18,0.21
		h-0.59c-0.18,0-0.34,0.09-0.48,0.26c-0.14,0.17-0.25,0.39-0.33,0.65c-0.08,0.23-0.14,0.51-0.18,0.83
		c-0.05,0.32-0.08,0.59-0.08,0.83c-0.02,0.3-0.03,0.5-0.03,0.62l-0.03,0.07c0,0.52-0.01,0.99-0.03,1.41l-0.03,1.41
		c0,0.41,0.03,0.79,0.08,1.13c0.05,0.37,0.18,0.71,0.41,1.01c0.21,0.3,0.55,0.45,0.99,0.45c0.14,0,0.26-0.04,0.35-0.13
		c0.14,0,0.21,0.05,0.21,0.15c0,0.07-0.06,0.14-0.17,0.23c-0.12,0.09-0.24,0.16-0.36,0.2h-0.46L122.55,55.48z"/>
	<path class="st1" d="M127.6,55.4c-0.05-1.73-0.07-2.98-0.07-3.75l-0.04-0.06l0.06-0.13c0-0.17-0.02-0.34-0.06-0.52l-0.21-0.06
		c-0.08,0.03-0.18,0.04-0.28,0.04c-0.07,0-0.23-0.02-0.46-0.07c-0.16-0.05-0.3-0.07-0.43-0.07l-0.15,0.06c0,0.33,0,0.62-0.01,0.88
		c-0.01,0.26-0.01,0.56-0.01,0.88l0.03,0.06c0,0.26,0.01,0.65,0.04,1.18c0.03,0.51,0.04,0.9,0.04,1.16c0,0.1-0.02,0.19-0.06,0.26
		c-0.04,0.07-0.09,0.11-0.17,0.11c-0.21,0-0.31-0.28-0.31-0.84c0-0.48,0-0.91,0.01-1.29l0.01-1.27c0-0.85-0.01-1.31-0.04-1.37
		c0.05-0.09,0.07-0.4,0.07-0.92c0-0.45-0.02-0.99-0.06-1.64l-0.03-0.55l-0.03-1.09c0-0.06,0.02-0.13,0.07-0.18
		c0.05-0.06,0.1-0.08,0.17-0.08c0.19,0,0.28,0.27,0.28,0.81c0,0.63,0,1.21-0.01,1.72c-0.02,0.51-0.03,1.08-0.03,1.69
		c0,0.11,0.35,0.17,1.06,0.17h0.06c0.18,0,0.31-0.03,0.38-0.1s0.12-0.19,0.12-0.36c0-0.49-0.03-1.14-0.1-1.93
		c-0.06-0.86-0.08-1.5-0.08-1.93c0-0.06,0.02-0.11,0.07-0.15c0.05-0.04,0.1-0.06,0.17-0.06l0.13,0.04c0.06,0.01,0.11,0.02,0.13,0.04
		c0,0.73,0.03,1.82,0.08,3.26c0.06,1.46,0.08,2.55,0.08,3.28c0,1.1,0.03,2.03,0.1,2.77l-0.1,0.15
		C128.02,55.45,127.88,55.4,127.6,55.4z M127.14,50.33l0.03,0.03h-0.03V50.33z"/>
	<path class="st1" d="M130.06,55.27v-0.18c0.01-0.05,0.01-0.1,0.01-0.17l-0.06-0.06c0.07-0.2,0.11-0.39,0.11-0.57
		c0-0.21-0.01-0.52-0.04-0.92l-0.03-0.92c0-0.47,0.01-1.17,0.04-2.1c0.04-0.83,0.06-1.54,0.06-2.11l-0.03-0.84
		c-0.02-0.25-0.03-0.53-0.03-0.84c0-0.14,0.03-0.24,0.1-0.3s0.17-0.09,0.31-0.09c0.09,0,0.17,0.03,0.22,0.08
		c0.02,0.01,0.15,0.03,0.41,0.06c0.23,0.03,0.43,0.07,0.6,0.13c0.18,0.06,0.27,0.13,0.27,0.21c0,0.09-0.09,0.19-0.27,0.28
		c-0.53-0.18-0.91-0.27-1.13-0.27l-0.07,0.08c0.01,0.08,0.01,0.29,0.01,0.6c0,0.4-0.01,0.76-0.03,1.08
		c-0.01,0.33-0.01,0.69-0.01,1.09c0,0.26,0.06,0.39,0.2,0.39l0.22-0.01c0.07-0.01,0.15-0.01,0.24-0.01c0.36,0,0.55,0.08,0.55,0.25
		c0,0.1-0.02,0.19-0.07,0.26s-0.12,0.1-0.21,0.1c-0.14,0-0.25-0.04-0.32-0.11l-0.45-0.07h-0.07l-0.07,0.07v0.04
		c0.02,0.16,0.03,0.53,0.03,1.11c0,0.36,0,0.7-0.01,0.99l-0.01,0.99c0,0.36,0.01,0.74,0.04,1.12c0.01,0.21,0.06,0.36,0.14,0.43
		s0.24,0.11,0.46,0.11l0.25-0.01c0.08-0.01,0.18-0.01,0.28-0.01c0.27,0,0.41,0.06,0.41,0.18c0,0.17-0.21,0.25-0.62,0.25h-1.15
		C130.18,55.57,130.08,55.47,130.06,55.27z"/>
	<path class="st1" d="M133.68,55.25c0.02-0.06,0.03-0.21,0.03-0.46c0-0.86,0.01-2.13,0.04-3.82c0.03-1.68,0.04-2.89,0.04-3.64
		l0.03-0.5l0.04-0.42c0-0.06,0.03-0.1,0.1-0.1c0.05,0,0.11,0.01,0.2,0.04l0.04,0.01c0,0.21,0,0.39-0.01,0.56v0.55v1.53
		c0.01,0.45,0.01,0.96,0.01,1.53c-0.01,0.05-0.01,0.15-0.01,0.31l-0.01,0.29c-0.01,0.19-0.01,0.38-0.01,0.57
		c0,0.21,0,0.41,0.01,0.59l0.01,0.6l-0.04,0.11l0.01-0.01c0,0.03,0,0.05-0.01,0.06v0.06c0,0.08,0.01,0.14,0.04,0.2l-0.04,1.34v0.08
		c0,0.16,0,0.25,0.01,0.28c0,0.05,0.02,0.07,0.07,0.07l0.73,0.03c0.21,0,0.36,0,0.44,0.01c0.08,0,0.13,0.01,0.15,0.01h0.04
		c0.05,0,0.09,0.03,0.14,0.08c0.05,0.05,0.07,0.11,0.07,0.16c0,0.11-0.07,0.17-0.22,0.18c-0.16-0.01-0.55-0.01-1.16-0.01l0.03,0.01
		c-0.09,0-0.18,0-0.27,0.01c-0.07,0.02-0.16,0.03-0.25,0.03C133.78,55.57,133.7,55.46,133.68,55.25z"/>
	<path class="st1" d="M140.93,55.5c-0.11-0.03-0.16-0.04-0.15-0.04c-0.17-0.69-0.36-1.72-0.56-3.09l-0.77-5l-0.13-0.62
		c-0.21-0.8-0.31-1.37-0.31-1.69c0-0.07,0.02-0.12,0.06-0.17c0.04-0.05,0.09-0.08,0.13-0.08c0.03,0,0.06,0.01,0.1,0.03
		c0.05,0.02,0.09,0.07,0.13,0.15c0.04,0.08,0.06,0.15,0.06,0.21l0.03,0.2l0.2,1.08l0.13,0.74l0.7,4.8l0.18,1.33
		c0.08,0.45,0.14,0.87,0.18,1.27l0.1-0.99l0.15-1.61l0.34-3.07c0.08-0.87,0.14-1.44,0.18-1.71l0.07-0.73l0.1-0.7
		c0.05-0.28,0.08-0.54,0.1-0.78c0.02-0.18,0.11-0.27,0.27-0.27l0.08,0.06h-0.03l0.14,0.11c0,0.27-0.04,0.67-0.11,1.19l-0.08,0.55
		l-0.04,0.35c-0.12,1.02-0.2,1.65-0.22,1.9c-0.14,1.19-0.29,2.47-0.44,3.85c-0.15,1.38-0.24,2.19-0.25,2.44
		c-0.07,0.21-0.16,0.31-0.27,0.31L140.93,55.5z M140.91,54.7l-0.01-0.04l-0.03,0.04H140.91z"/>
	<path class="st1" d="M143.86,55.34c-0.06-0.07-0.09-0.15-0.09-0.23c0-0.09,0.04-0.18,0.11-0.26c0.08-0.08,0.16-0.12,0.25-0.12
		c0.08,0,0.15,0.04,0.22,0.12c0.07,0.08,0.11,0.16,0.11,0.25c0,0.23-0.13,0.35-0.39,0.35C143.99,55.44,143.92,55.41,143.86,55.34z"
		/>
</g>
<g>
</g>
<g>
</g>
<g>
</g>
<g>
</g>
<g>
</g>
<g>
</g>
</svg>
